<?xml version="1.0" encoding="UTF-8"?>
<svg xmlns="http://www.w3.org/2000/svg" viewBox="0 0 1006.54 239.35">
  <defs>
    <style>
      .cls-1 {
        fill: none;
        stroke-width: 13px;
      }

      .cls-1, .cls-2, .cls-3, .cls-4 {
        stroke: #fff;
        stroke-miterlimit: 10;
      }

      .cls-2 {
        stroke-width: 3px;
      }

      .cls-2, .cls-3, .cls-4 {
        fill: #fff;
      }

      .cls-3 {
        font-family: BiauKaiTC-Regular-83pv-RKSJ-H, BiauKaiTC;
        font-size: 150px;
      }
    </style>
  </defs>
  <g id="_レイヤー_1" data-name="レイヤー 1">
    <path class="cls-2" d="M54.7,50.05h33.3c3.21,0,5.82,2.61,5.82,5.82h0c0,3.21-2.61,5.82-5.82,5.82h-27.48c-3.21,0-5.82-2.61-5.82-5.82v-5.82h0Z" transform="translate(54.78 -35) rotate(40.94)"/>
    <path class="cls-2" d="M78.42,89.39c-.28.16-.59.28-.91.35l-12.26,2.63-30.44,6.92h0c-.66-2.88-.1-5.76,1.36-8.09s3.8-4.09,6.68-4.76l25.19-5.8,21.99-5.06c1.75-.4,3.49.73,3.83,2.49h0c.26,1.34-.36,2.69-1.54,3.37l-13.89,7.94Z"/>
    <rect class="cls-2" x="65.42" y="125.03" width="12.11" height="9.31" transform="translate(134.32 -4.39) rotate(53.97)"/>
    <rect class="cls-2" x="66.81" y="127.36" width="9.78" height="73.12" rx="4.89" ry="4.89"/>
    <rect class="cls-2" x="96.16" y="99.88" width="10.71" height="17.7" rx="5.36" ry="5.36" transform="translate(250.18 113.84) rotate(135)"/>
    <path class="cls-2" d="M103.65,113.63c-4.14,4.84-10.06,10.49-18.2,15.13-2.24,1.28-4.43,2.35-6.52,3.26-1.52-2.05-3.04-4.1-4.56-6.15,3.1-.94,7.73-2.77,12.48-6.42,5.96-4.59,9.23-9.86,10.85-12.98,1.99,2.39,3.97,4.77,5.96,7.16Z"/>
    <path class="cls-2" d="M112.46,86.84h9.31v103.4h0c-5.14,0-9.31-4.17-9.31-9.31v-94.08h0Z"/>
    <path class="cls-2" d="M193.96,86.84h0v103.4h-9.31v-94.08c0-5.14,4.17-9.31,9.31-9.31Z" transform="translate(378.61 277.08) rotate(180)"/>
    <rect class="cls-2" x="124.1" y="102.68" width="57.75" height="7.45"/>
    <rect class="cls-2" x="124.1" y="138.54" width="57.75" height="7.45"/>
    <rect class="cls-2" x="124.1" y="179.06" width="57.75" height="7.45"/>
    <path class="cls-2" d="M149.25,48.18h0c5.4,0,9.78,4.38,9.78,9.78v122.03h-9.78V48.18h0Z"/>
    <path class="cls-4" d="M102.47,157.51c-1.06,1.06-2.79,1.06-3.85,0l-8.82-8.82-8.82-8.82c-1.06-1.06-1.06-2.79,0-3.85h0c.53-.53,1.25-.81,2-.8,11.72.23,20.86,5.14,22.96,12.16.4,1.33.69,3.24.25,5.73"/>
    <path class="cls-2" d="M97.09,84.98c1.33,1.33,1.33,3.49,0,4.82-5.77,9.33-14.04,20.81-25.62,32.44-11.83,11.89-23.54,20.33-33.01,26.18-1.33,1.33-3.49,1.33-4.82,0l-1.05-1.05-.45-.45c-1.53-1.53-1.27-4.08.54-5.26.11-.07.23-.15.35-.23,5.1-3.35,14.08-9.7,23.53-19.2,10.33-10.4,17.55-20.86,22.37-29.05.29-.5.71-.92,1.21-1.21l12.8-7.53c.24-.14,1.06-.58,2.16-.44s1.78.77,1.98.97Z"/>
    <circle class="cls-1" cx="119.68" cy="119.68" r="113.18"/>
  </g>
  <g id="_レイヤー_2" data-name="レイヤー 2">
    <text class="cls-3" transform="translate(253.89 180.49)"><tspan x="0" y="0">袖野建具店</tspan></text>
  </g>
</svg>